<svg width="500" height="400" xmlns="http://www.w3.org/2000/svg">
  <defs>
    <pattern id="bambooWeave" x="0" y="0" width="30" height="30" patternUnits="userSpaceOnUse">
      <rect width="30" height="30" fill="#F5DEB3"/>
      <rect x="0" y="10" width="30" height="2" fill="#8B4513"/>
      <rect x="10" y="0" width="2" height="30" fill="#D2691E"/>
      <rect x="20" y="0" width="2" height="30" fill="#8B4513"/>
      <circle cx="15" cy="15" r="3" fill="#CD853F" opacity="0.6"/>
    </pattern>
    <linearGradient id="frameGrad" x1="0%" y1="0%" x2="100%" y2="100%">
      <stop offset="0%" style="stop-color:#8B4513;stop-opacity:1" />
      <stop offset="100%" style="stop-color:#654321;stop-opacity:1" />
    </linearGradient>
  </defs>
  
  <rect width="500" height="400" fill="#F8F5F0"/>
  
  <!-- Wall background -->
  <rect x="0" y="0" width="500" height="400" fill="#FFFEF7"/>
  
  <!-- Shadow behind frame -->
  <rect x="55" y="55" width="390" height="290" fill="#000" opacity="0.1"/>
  
  <!-- Frame -->
  <rect x="50" y="50" width="400" height="300" fill="url(#frameGrad)" stroke="#5D4037" stroke-width="3"/>
  
  <!-- Bamboo woven panel -->
  <rect x="70" y="70" width="360" height="260" fill="url(#bambooWeave)"/>
  
  <!-- Geometric patterns overlay -->
  <g opacity="0.8">
    <!-- Diamond pattern -->
    <polygon points="250,90 280,120 250,150 220,120" fill="#8B4513" opacity="0.7"/>
    <polygon points="250,100 270,120 250,140 230,120" fill="#F5DEB3"/>
    
    <!-- Side triangles -->
    <polygon points="150,180 180,160 180,200" fill="#D2691E" opacity="0.6"/>
    <polygon points="350,180 320,160 320,200" fill="#D2691E" opacity="0.6"/>
    
    <!-- Central weave pattern -->
    <rect x="200" y="200" width="100" height="4" fill="#8B4513"/>
    <rect x="200" y="210" width="100" height="4" fill="#CD853F"/>
    <rect x="200" y="220" width="100" height="4" fill="#8B4513"/>
    
    <!-- Vertical elements -->
    <rect x="240" y="170" width="4" height="80" fill="#654321"/>
    <rect x="250" y="170" width="4" height="80" fill="#8B4513"/>
    <rect x="260" y="170" width="4" height="80" fill="#654321"/>
  </g>
  
  <!-- Corner decorative elements -->
  <circle cx="90" cy="90" r="8" fill="#8B4513" opacity="0.5"/>
  <circle cx="410" cy="90" r="8" fill="#8B4513" opacity="0.5"/>
  <circle cx="90" cy="310" r="8" fill="#8B4513" opacity="0.5"/>
  <circle cx="410" cy="310" r="8" fill="#8B4513" opacity="0.5"/>
  
  <!-- Hanging hardware -->
  <rect x="240" y="45" width="20" height="10" fill="#C0C0C0"/>
  <circle cx="250" cy="40" r="3" fill="#C0C0C0"/>
</svg>