<svg width="300" height="400" xmlns="http://www.w3.org/2000/svg">
  <defs>
    <linearGradient id="skinGrad3" x1="0%" y1="0%" x2="100%" y2="100%">
      <stop offset="0%" style="stop-color:#D2B48C;stop-opacity:1" />
      <stop offset="100%" style="stop-color:#CD853F;stop-opacity:1" />
    </linearGradient>
    <linearGradient id="gondGrad" x1="0%" y1="0%" x2="100%" y2="100%">
      <stop offset="0%" style="stop-color:#32CD32;stop-opacity:1" />
      <stop offset="50%" style="stop-color:#FFD700;stop-opacity:1" />
      <stop offset="100%" style="stop-color:#FF6347;stop-opacity:1" />
    </linearGradient>
  </defs>
  
  <rect width="300" height="400" fill="#F5F5DC"/>
  
  <!-- Art studio background -->
  <rect x="0" y="280" width="300" height="120" fill="#8B4513" opacity="0.15"/>
  
  <!-- Easel with Gond painting -->
  <rect x="200" y="290" width="60" height="80" fill="#F5DEB3" stroke="#8B4513" stroke-width="2"/>
  
  <!-- Gond art on easel -->
  <circle cx="230" cy="320" r="15" fill="#32CD32"/>
  <circle cx="230" cy="320" r="10" fill="#FFD700"/>
  <circle cx="230" cy="320" r="5" fill="#FF6347"/>
  <polygon points="230,305 240,325 220,325" fill="#8B4513"/>
  <circle cx="215" cy="340" r="8" fill="#32CD32"/>
  <circle cx="245" cy="340" r="8" fill="#FF6347"/>
  <path d="M210 350 Q230 345 250 350" fill="none" stroke="#FFD700" stroke-width="2"/>
  
  <!-- Paint brushes and palette -->
  <rect x="180" y="350" width="2" height="20" fill="#8B4513"/>
  <rect x="185" y="350" width="2" height="20" fill="#8B4513"/>
  <rect x="190" y="350" width="2" height="20" fill="#8B4513"/>
  
  <ellipse cx="170" cy="355" rx="10" ry="6" fill="#F5DEB3"/>
  <circle cx="165" cy="352" r="2" fill="#FF6347"/>
  <circle cx="170" cy="355" r="2" fill="#32CD32"/>
  <circle cx="175" cy="358" r="2" fill="#FFD700"/>
  
  <!-- Meera figure -->
  <!-- Head -->
  <circle cx="150" cy="100" r="35" fill="url(#skinGrad3)"/>
  
  <!-- Hair (traditional style) -->
  <path d="M115 85 Q115 65 150 65 Q185 65 185 85 Q185 95 180 100 L170 95 Q160 100 150 95 Q140 100 130 95 L120 100 Q115 95 115 85" fill="#2F1B14"/>
  
  <!-- Hair flowers -->
  <circle cx="130" cy="80" r="3" fill="#FFD700"/>
  <circle cx="170" cy="80" r="3" fill="#FF6347"/>
  
  <!-- Face features -->
  <circle cx="140" cy="95" r="2" fill="#2F1B14"/>
  <circle cx="160" cy="95" r="2" fill="#2F1B14"/>
  <path d="M145 105 Q150 110 155 105" fill="none" stroke="#2F1B14" stroke-width="2"/>
  <circle cx="150" cy="100" r="1" fill="#2F1B14"/>
  
  <!-- Nose ring -->
  <circle cx="145" cy="100" r="1.5" fill="#FFD700"/>
  
  <!-- Bindi -->
  <circle cx="150" cy="85" r="2" fill="#FF0000"/>
  
  <!-- Body/Sari (artist style) -->
  <path d="M120 135 Q120 130 130 130 L170 130 Q180 130 180 135 L180 200 Q180 210 175 220 L175 280 L125 280 L125 220 Q120 210 120 200 Z" fill="url(#gondGrad)"/>
  
  <!-- Sari border with Gond patterns -->
  <rect x="125" y="200" width="50" height="3" fill="#8B4513"/>
  <circle cx="135" cy="210" r="2" fill="#FFD700"/>
  <circle cx="145" cy="210" r="2" fill="#FF6347"/>
  <circle cx="155" cy="210" r="2" fill="#32CD32"/>
  <circle cx="165" cy="210" r="2" fill="#FFD700"/>
  
  <!-- Arms -->
  <ellipse cx="105" cy="160" rx="8" ry="25" fill="url(#skinGrad3)"/>
  <ellipse cx="195" cy="160" rx="8" ry="25" fill="url(#skinGrad3)"/>
  
  <!-- Hands holding brush and palette -->
  <circle cx="105" cy="185" r="6" fill="url(#skinGrad3)"/>
  <circle cx="195" cy="185" r="6" fill="url(#skinGrad3)"/>
  
  <!-- Paint brush -->
  <line x1="105" y1="185" x2="90" y2="175" stroke="#8B4513" stroke-width="2"/>
  <circle cx="88" cy="173" r="2" fill="#FF6347"/>
  
  <!-- Small palette in hand -->
  <ellipse cx="195" cy="185" rx="4" ry="2" fill="#F5DEB3"/>
  
  <!-- Jewelry -->
  <ellipse cx="150" cy="120" rx="15" ry="3" fill="#FFD700"/>
  <circle cx="140" cy="120" r="2" fill="#FF0000"/>
  <circle cx="150" cy="120" r="2" fill="#32CD32"/>
  <circle cx="160" cy="120" r="2" fill="#FF6347"/>
  
  <!-- Bangles -->
  <ellipse cx="105" cy="175" rx="3" ry="6" fill="#FFD700"/>
  <ellipse cx="195" cy="175" rx="3" ry="6" fill="#FFD700"/>
  
  <!-- Small Gond motifs around the figure -->
  <circle cx="50" cy="150" r="6" fill="#32CD32" opacity="0.6"/>
  <polygon points="50,144 55,154 45,154" fill="#FFD700" opacity="0.7"/>
  
  <circle cx="250" cy="180" r="5" fill="#FF6347" opacity="0.6"/>
  <circle cx="250" cy="180" r="3" fill="#FFD700" opacity="0.8"/>
  
  <!-- Name plate -->
  <rect x="50" y="350" width="200" height="30" fill="#F5DEB3" stroke="#8B4513" stroke-width="2"/>
  <text x="150" y="367" text-anchor="middle" font-family="serif" font-size="14" font-weight="bold" fill="#8B4513">Meera Gond</text>
  <text x="150" y="380" text-anchor="middle" font-family="serif" font-size="10" fill="#654321">मीरा गोंड - Pipariya</text>
</svg>