<svg width="400" height="300" xmlns="http://www.w3.org/2000/svg">
  <defs>
    <linearGradient id="giftGrad" x1="0%" y1="0%" x2="100%" y2="100%">
      <stop offset="0%" style="stop-color:#FF6347;stop-opacity:1" />
      <stop offset="100%" style="stop-color:#8B0000;stop-opacity:1" />
    </linearGradient>
    <linearGradient id="ribbonGrad" x1="0%" y1="0%" x2="100%" y2="100%">
      <stop offset="0%" style="stop-color:#FFD700;stop-opacity:1" />
      <stop offset="100%" style="stop-color:#B8860B;stop-opacity:1" />
    </linearGradient>
  </defs>
  
  <rect width="400" height="300" fill="#FFF8DC"/>
  
  <!-- Gift box 1 -->
  <rect x="80" y="120" width="60" height="60" fill="url(#giftGrad)"/>
  <rect x="105" y="120" width="10" height="60" fill="url(#ribbonGrad)"/>
  <rect x="80" y="145" width="60" height="10" fill="url(#ribbonGrad)"/>
  <path d="M100 120 Q105 100 110 120 Q115 100 120 120" fill="url(#ribbonGrad)"/>
  
  <!-- Gift box 2 -->
  <rect x="180" y="140" width="50" height="50" fill="#32CD32"/>
  <rect x="200" y="140" width="10" height="50" fill="#FFD700"/>
  <rect x="180" y="160" width="50" height="10" fill="#FFD700"/>
  <ellipse cx="205" cy="140" rx="8" ry="4" fill="#FFD700"/>
  
  <!-- Souvenir figurine -->
  <ellipse cx="300" cy="200" rx="15" ry="8" fill="#8B4513"/>
  <rect x="290" y="170" width="20" height="30" fill="#D2691E"/>
  <circle cx="300" cy="160" r="8" fill="#F4E5D3"/>
  <circle cx="297" cy="157" r="1" fill="#000"/>
  <circle cx="303" cy="157" r="1" fill="#000"/>
  <path d="M295 162 Q300 165 305 162" fill="none" stroke="#000" stroke-width="1"/>
  
  <!-- Decorative tribal mask -->
  <circle cx="120" cy="230" r="20" fill="#8B4513"/>
  <circle cx="115" cy="225" r="3" fill="#FFD700"/>
  <circle cx="125" cy="225" r="3" fill="#FFD700"/>
  <path d="M110 235 Q120 240 130 235" fill="none" stroke="#FFD700" stroke-width="2"/>
  <polygon points="120,210 125,220 115,220" fill="#D2691E"/>
  
  <!-- Miniature pottery -->
  <ellipse cx="250" cy="230" rx="8" ry="5" fill="#8B4513"/>
  <path d="M242 230 Q242 215 250 215 Q258 215 258 230" fill="#CD853F"/>
  <line x1="245" y1="220" x2="255" y2="220" stroke="#8B4513" stroke-width="1"/>
  
  <!-- Bookmark with tribal design -->
  <rect x="330" y="120" width="20" height="80" fill="#F4E5D3" stroke="#8B4513" stroke-width="1"/>
  <circle cx="340" cy="140" r="4" fill="#D2691E"/>
  <polygon points="340,160 345,170 335,170" fill="#8B4513"/>
  <circle cx="340" cy="180" r="3" fill="#FFD700"/>
  
  <!-- Keychain -->
  <circle cx="60" cy="180" r="6" fill="#FFD700"/>
  <circle cx="60" cy="180" r="3" fill="#8B4513"/>
  <line x1="66" y1="180" x2="76" y2="180" stroke="#C0C0C0" stroke-width="2"/>
  <rect x="76" y="177" width="8" height="6" fill="#8B4513"/>
  
  <!-- Decorative elements -->
  <polygon points="350,50 360,70 340,70" fill="#FF6347" opacity="0.6"/>
  <circle cx="40" cy="100" r="5" fill="#32CD32" opacity="0.7"/>
  <circle cx="370" cy="240" r="4" fill="#FFD700" opacity="0.8"/>
  
  <!-- Sparkle effects -->
  <polygon points="200,80 202,85 207,83 203,88 208,92 202,90 200,95 198,90 192,92 197,88 193,83 198,85" fill="#FFD700" opacity="0.8"/>
  <polygon points="150,60 151,63 154,62 152,65 155,67 152,66 150,69 148,66 145,67 148,65 146,62 148,63" fill="#FFD700" opacity="0.8"/>
  
  <!-- Text -->
  <text x="200" y="270" text-anchor="middle" font-family="serif" font-size="18" font-weight="bold" fill="#8B4513">Gifts &amp; Souvenirs</text>
  <text x="200" y="285" text-anchor="middle" font-family="serif" font-size="14" fill="#654321">उपहार और स्मृति चिन्ह</text>
</svg>