<svg width="300" height="400" xmlns="http://www.w3.org/2000/svg">
  <defs>
    <linearGradient id="brassGrad" x1="0%" y1="0%" x2="100%" y2="100%">
      <stop offset="0%" style="stop-color:#FFD700;stop-opacity:1" />
      <stop offset="100%" style="stop-color:#B8860B;stop-opacity:1" />
    </linearGradient>
    <radialGradient id="brassShine" cx="30%" cy="30%" r="70%">
      <stop offset="0%" style="stop-color:#FFF;stop-opacity:0.6" />
      <stop offset="100%" style="stop-color:#FFD700;stop-opacity:1" />
    </radialGradient>
  </defs>
  
  <rect width="300" height="400" fill="#F5F5DC"/>
  
  <!-- Left earring -->
  <g transform="translate(100, 150)">
    <!-- Hook -->
    <path d="M0 0 Q-5 -10 0 -15 Q5 -10 0 0" fill="url(#brassGrad)" stroke="#B8860B" stroke-width="1"/>
    
    <!-- Main pendant -->
    <circle cx="0" cy="40" r="25" fill="url(#brassShine)" stroke="#B8860B" stroke-width="2"/>
    
    <!-- Tribal pattern on pendant -->
    <circle cx="0" cy="40" r="15" fill="none" stroke="#8B4513" stroke-width="1"/>
    <polygon points="0,25 8,40 0,55 -8,40" fill="#8B4513"/>
    <circle cx="0" cy="40" r="5" fill="#FFD700"/>
    
    <!-- Dangling elements -->
    <circle cx="-15" cy="70" r="6" fill="url(#brassGrad)"/>
    <circle cx="0" cy="75" r="8" fill="url(#brassGrad)"/>
    <circle cx="15" cy="70" r="6" fill="url(#brassGrad)"/>
    
    <!-- Small tribal dots -->
    <circle cx="-15" cy="70" r="2" fill="#8B4513"/>
    <circle cx="0" cy="75" r="3" fill="#8B4513"/>
    <circle cx="15" cy="70" r="2" fill="#8B4513"/>
    
    <!-- Connecting chains -->
    <line x1="0" y1="65" x2="-15" y2="64" stroke="#B8860B" stroke-width="1"/>
    <line x1="0" y1="65" x2="0" y2="67" stroke="#B8860B" stroke-width="1"/>
    <line x1="0" y1="65" x2="15" y2="64" stroke="#B8860B" stroke-width="1"/>
  </g>
  
  <!-- Right earring (mirror image) -->
  <g transform="translate(200, 150)">
    <!-- Hook -->
    <path d="M0 0 Q-5 -10 0 -15 Q5 -10 0 0" fill="url(#brassGrad)" stroke="#B8860B" stroke-width="1"/>
    
    <!-- Main pendant -->
    <circle cx="0" cy="40" r="25" fill="url(#brassShine)" stroke="#B8860B" stroke-width="2"/>
    
    <!-- Tribal pattern on pendant -->
    <circle cx="0" cy="40" r="15" fill="none" stroke="#8B4513" stroke-width="1"/>
    <polygon points="0,25 8,40 0,55 -8,40" fill="#8B4513"/>
    <circle cx="0" cy="40" r="5" fill="#FFD700"/>
    
    <!-- Dangling elements -->
    <circle cx="-15" cy="70" r="6" fill="url(#brassGrad)"/>
    <circle cx="0" cy="75" r="8" fill="url(#brassGrad)"/>
    <circle cx="15" cy="70" r="6" fill="url(#brassGrad)"/>
    
    <!-- Small tribal dots -->
    <circle cx="-15" cy="70" r="2" fill="#8B4513"/>
    <circle cx="0" cy="75" r="3" fill="#8B4513"/>
    <circle cx="15" cy="70" r="2" fill="#8B4513"/>
    
    <!-- Connecting chains -->
    <line x1="0" y1="65" x2="-15" y2="64" stroke="#B8860B" stroke-width="1"/>
    <line x1="0" y1="65" x2="0" y2="67" stroke="#B8860B" stroke-width="1"/>
    <line x1="0" y1="65" x2="15" y2="64" stroke="#B8860B" stroke-width="1"/>
  </g>
  
  <!-- Shadow beneath earrings -->
  <ellipse cx="150" cy="280" rx="60" ry="20" fill="#000" opacity="0.1"/>
  
  <!-- Decorative background elements -->
  <g opacity="0.2">
    <circle cx="50" cy="100" r="8" fill="#FFD700"/>
    <circle cx="250" cy="120" r="6" fill="#B8860B"/>
    <circle cx="70" cy="300" r="10" fill="#FFD700"/>
    <circle cx="230" cy="320" r="7" fill="#B8860B"/>
  </g>
</svg>