<svg width="500" height="600" xmlns="http://www.w3.org/2000/svg">
  <defs>
    <linearGradient id="sariGrad1" x1="0%" y1="0%" x2="100%" y2="100%">
      <stop offset="0%" style="stop-color:#FF6347;stop-opacity:1" />
      <stop offset="25%" style="stop-color:#FFD700;stop-opacity:1" />
      <stop offset="50%" style="stop-color:#FF6347;stop-opacity:1" />
      <stop offset="75%" style="stop-color:#FFD700;stop-opacity:1" />
      <stop offset="100%" style="stop-color:#FF6347;stop-opacity:1" />
    </linearGradient>
    <pattern id="sariPattern" x="0" y="0" width="40" height="40" patternUnits="userSpaceOnUse">
      <rect width="40" height="40" fill="#FF6347"/>
      <circle cx="20" cy="20" r="8" fill="#FFD700" opacity="0.8"/>
      <polygon points="20,10 25,18 15,18" fill="#8B0000" opacity="0.6"/>
      <circle cx="10" cy="10" r="2" fill="#FFD700"/>
      <circle cx="30" cy="30" r="2" fill="#FFD700"/>
    </pattern>
    <linearGradient id="borderGrad" x1="0%" y1="0%" x2="100%" y2="0%">
      <stop offset="0%" style="stop-color:#FFD700;stop-opacity:1" />
      <stop offset="50%" style="stop-color:#8B0000;stop-opacity:1" />
      <stop offset="100%" style="stop-color:#FFD700;stop-opacity:1" />
    </linearGradient>
  </defs>
  
  <rect width="500" height="600" fill="#F5F5DC"/>
  
  <!-- Sari laid out elegantly -->
  <!-- Main body -->
  <path d="M50 100 Q50 80 80 80 L420 80 Q450 80 450 100 L450 450 Q450 470 420 470 L80 470 Q50 470 50 450 Z" fill="url(#sariPattern)"/>
  
  <!-- Decorative border -->
  <rect x="50" y="80" width="400" height="15" fill="url(#borderGrad)"/>
  <rect x="50" y="455" width="400" height="15" fill="url(#borderGrad)"/>
  
  <!-- Pallu (decorative end piece) -->
  <path d="M350 80 Q380 60 420 80 L420 250 Q400 270 380 250 Q360 260 350 240 Z" fill="url(#sariGrad1)"/>
  
  <!-- Intricate patterns on pallu -->
  <circle cx="385" cy="120" r="8" fill="#8B0000"/>
  <circle cx="385" cy="120" r="5" fill="#FFD700"/>
  <polygon points="385,140 395,155 375,155" fill="#8B0000"/>
  <circle cx="370" cy="170" r="6" fill="#FFD700"/>
  <circle cx="400" cy="190" r="5" fill="#8B0000"/>
  <path d="M360 200 Q385 190 410 200 Q385 210 360 200" fill="#FFD700" opacity="0.8"/>
  
  <!-- Traditional motifs scattered across sari -->
  <g opacity="0.7">
    <circle cx="150" cy="180" r="10" fill="#8B0000"/>
    <circle cx="150" cy="180" r="6" fill="#FFD700"/>
    
    <circle cx="250" cy="250" r="12" fill="#FFD700"/>
    <circle cx="250" cy="250" r="8" fill="#8B0000"/>
    <polygon points="250,235 260,250 240,250" fill="#FFD700"/>
    
    <circle cx="200" cy="350" r="8" fill="#8B0000"/>
    <circle cx="320" cy="320" r="7" fill="#FFD700"/>
  </g>
  
  <!-- Weave texture lines -->
  <g opacity="0.3">
    <line x1="80" y1="120" x2="420" y2="120" stroke="#8B0000" stroke-width="1"/>
    <line x1="80" y1="160" x2="420" y2="160" stroke="#8B0000" stroke-width="1"/>
    <line x1="80" y1="200" x2="420" y2="200" stroke="#8B0000" stroke-width="1"/>
    <line x1="80" y1="240" x2="420" y2="240" stroke="#8B0000" stroke-width="1"/>
    <line x1="80" y1="280" x2="420" y2="280" stroke="#8B0000" stroke-width="1"/>
    <line x1="80" y1="320" x2="420" y2="320" stroke="#8B0000" stroke-width="1"/>
    <line x1="80" y1="360" x2="420" y2="360" stroke="#8B0000" stroke-width="1"/>
    <line x1="80" y1="400" x2="420" y2="400" stroke="#8B0000" stroke-width="1"/>
    <line x1="80" y1="440" x2="420" y2="440" stroke="#8B0000" stroke-width="1"/>
  </g>
  
  <!-- Elegant folds and draping -->
  <path d="M150 470 Q170 490 190 470 Q210 480 230 470" fill="none" stroke="#8B0000" stroke-width="2" opacity="0.6"/>
  <path d="M270 470 Q290 485 310 470 Q330 485 350 470" fill="none" stroke="#8B0000" stroke-width="2" opacity="0.6"/>
  
  <!-- Cotton silk sheen effect -->
  <ellipse cx="200" cy="200" rx="80" ry="40" fill="#FFF" opacity="0.1"/>
  <ellipse cx="300" cy="300" rx="60" ry="30" fill="#FFF" opacity="0.1"/>
</svg>