<svg width="500" height="600" xmlns="http://www.w3.org/2000/svg">
  <defs>
    <linearGradient id="sariDetail" x1="0%" y1="0%" x2="100%" y2="100%">
      <stop offset="0%" style="stop-color:#DC143C;stop-opacity:1" />
      <stop offset="50%" style="stop-color:#FFD700;stop-opacity:1" />
      <stop offset="100%" style="stop-color:#DC143C;stop-opacity:1" />
    </linearGradient>
  </defs>
  
  <rect width="500" height="600" fill="#F8F8FF"/>
  
  <!-- Detailed view of sari border and motifs -->
  <rect x="50" y="50" width="400" height="500" fill="url(#sariDetail)"/>
  
  <!-- Intricate border pattern -->
  <rect x="50" y="50" width="400" height="30" fill="#FFD700"/>
  <rect x="50" y="520" width="400" height="30" fill="#FFD700"/>
  
  <!-- Traditional motifs -->
  <g transform="translate(80, 100)">
    <circle cx="0" cy="0" r="15" fill="#8B0000"/>
    <circle cx="0" cy="0" r="10" fill="#FFD700"/>
    <polygon points="0,-8 8,0 0,8 -8,0" fill="#8B0000"/>
  </g>
  
  <g transform="translate(180, 150)">
    <circle cx="0" cy="0" r="18" fill="#FFD700"/>
    <circle cx="0" cy="0" r="12" fill="#8B0000"/>
    <circle cx="0" cy="0" r="6" fill="#FFD700"/>
  </g>
  
  <g transform="translate(280, 200)">
    <circle cx="0" cy="0" r="12" fill="#8B0000"/>
    <polygon points="0,-10 10,0 0,10 -10,0" fill="#FFD700"/>
  </g>
  
  <g transform="translate(380, 250)">
    <circle cx="0" cy="0" r="16" fill="#FFD700"/>
    <circle cx="0" cy="0" r="8" fill="#8B0000"/>
  </g>
  
  <!-- Weave texture -->
  <g opacity="0.3">
    <line x1="50" y1="120" x2="450" y2="120" stroke="#8B0000" stroke-width="1"/>
    <line x1="50" y1="160" x2="450" y2="160" stroke="#8B0000" stroke-width="1"/>
    <line x1="50" y1="200" x2="450" y2="200" stroke="#8B0000" stroke-width="1"/>
    <line x1="50" y1="240" x2="450" y2="240" stroke="#8B0000" stroke-width="1"/>
    <line x1="50" y1="280" x2="450" y2="280" stroke="#8B0000" stroke-width="1"/>
    <line x1="50" y1="320" x2="450" y2="320" stroke="#8B0000" stroke-width="1"/>
    <line x1="50" y1="360" x2="450" y2="360" stroke="#8B0000" stroke-width="1"/>
    <line x1="50" y1="400" x2="450" y2="400" stroke="#8B0000" stroke-width="1"/>
    <line x1="50" y1="440" x2="450" y2="440" stroke="#8B0000" stroke-width="1"/>
    <line x1="50" y1="480" x2="450" y2="480" stroke="#8B0000" stroke-width="1"/>
  </g>
</svg>