<svg width="500" height="400" xmlns="http://www.w3.org/2000/svg">
  <defs>
    <radialGradient id="gondColors" cx="50%" cy="50%" r="50%">
      <stop offset="0%" style="stop-color:#32CD32;stop-opacity:1" />
      <stop offset="33%" style="stop-color:#FFD700;stop-opacity:1" />
      <stop offset="66%" style="stop-color:#FF6347;stop-opacity:1" />
      <stop offset="100%" style="stop-color:#8B4513;stop-opacity:1" />
    </radialGradient>
  </defs>
  
  <rect width="500" height="400" fill="#F5F5DC"/>
  
  <!-- Canvas frame -->
  <rect x="20" y="20" width="460" height="360" fill="#8B4513" stroke="#654321" stroke-width="3"/>
  <rect x="35" y="35" width="430" height="330" fill="#FFFEF7"/>
  
  <!-- Central tree (typical Gond motif) -->
  <circle cx="250" cy="200" r="80" fill="url(#gondColors)" opacity="0.8"/>
  <circle cx="250" cy="200" r="60" fill="#32CD32" opacity="0.7"/>
  <circle cx="250" cy="200" r="40" fill="#FFD700" opacity="0.8"/>
  <circle cx="250" cy="200" r="20" fill="#FF6347"/>
  
  <!-- Tree trunk -->
  <rect x="240" y="280" width="20" height="60" fill="#8B4513"/>
  
  <!-- Birds around the tree -->
  <g transform="translate(150, 120)">
    <ellipse cx="0" cy="0" rx="15" ry="8" fill="#FF6347"/>
    <ellipse cx="-5" cy="-3" rx="8" ry="5" fill="#FFD700"/>
    <path d="M-20 0 Q-25 -5 -20 -2 Q-15 5 -20 0" fill="#FF6347"/>
    <path d="M20 0 Q25 -5 20 -2 Q15 5 20 0" fill="#FF6347"/>
  </g>
  
  <g transform="translate(350, 150)">
    <ellipse cx="0" cy="0" rx="12" ry="6" fill="#32CD32"/>
    <ellipse cx="-3" cy="-2" rx="6" ry="4" fill="#FFD700"/>
    <path d="M-15 0 Q-18 -3 -15 -1 Q-12 3 -15 0" fill="#32CD32"/>
    <path d="M15 0 Q18 -3 15 -1 Q12 3 15 0" fill="#32CD32"/>
  </g>
  
  <!-- Fish in pond -->
  <ellipse cx="120" cy="320" rx="40" ry="15" fill="#4169E1" opacity="0.6"/>
  <g transform="translate(120, 320)">
    <ellipse cx="0" cy="0" rx="15" ry="5" fill="#FFD700"/>
    <path d="M15 0 Q20 -3 18 0 Q20 3 15 0" fill="#FF6347"/>
    <circle cx="-5" cy="-1" r="1" fill="#000"/>
  </g>
  
  <!-- Decorative dots pattern (typical of Gond art) -->
  <g opacity="0.8">
    <circle cx="100" cy="100" r="3" fill="#FF6347"/>
    <circle cx="110" cy="95" r="2" fill="#FFD700"/>
    <circle cx="120" cy="100" r="3" fill="#32CD32"/>
    <circle cx="130" cy="95" r="2" fill="#FF6347"/>
    
    <circle cx="370" cy="100" r="3" fill="#32CD32"/>
    <circle cx="380" cy="95" r="2" fill="#FF6347"/>
    <circle cx="390" cy="100" r="3" fill="#FFD700"/>
    <circle cx="400" cy="95" r="2" fill="#32CD32"/>
    
    <circle cx="100" cy="300" r="3" fill="#FFD700"/>
    <circle cx="110" cy="305" r="2" fill="#32CD32"/>
    <circle cx="120" cy="300" r="3" fill="#FF6347"/>
    <circle cx="130" cy="305" r="2" fill="#FFD700"/>
    
    <circle cx="370" cy="300" r="3" fill="#FF6347"/>
    <circle cx="380" cy="305" r="2" fill="#FFD700"/>
    <circle cx="390" cy="300" r="3" fill="#32CD32"/>
    <circle cx="400" cy="305" r="2" fill="#FF6347"/>
  </g>
  
  <!-- Spiral patterns (another Gond characteristic) -->
  <path d="M80 200 Q90 180 100 200 Q110 220 120 200 Q130 180 140 200" fill="none" stroke="#8B4513" stroke-width="2"/>
  <path d="M360 200 Q370 180 380 200 Q390 220 400 200 Q410 180 420 200" fill="none" stroke="#8B4513" stroke-width="2"/>
</svg>