<svg width="400" height="500" xmlns="http://www.w3.org/2000/svg">
  <rect width="400" height="500" fill="#2C1810"/>
  
  <!-- Dokra horse figurine -->
  <!-- Base -->
  <ellipse cx="200" cy="450" rx="60" ry="20" fill="#8B4513"/>
  
  <!-- Horse body -->
  <ellipse cx="200" cy="350" rx="40" ry="60" fill="#CD853F"/>
  
  <!-- Horse head -->
  <ellipse cx="200" cy="280" rx="25" ry="40" fill="#CD853F"/>
  
  <!-- Mane -->
  <path d="M175 260 Q160 240 180 220 Q200 240 220 220 Q240 240 225 260" fill="#8B4513"/>
  
  <!-- Legs -->
  <rect x="170" y="400" width="8" height="40" fill="#CD853F"/>
  <rect x="185" y="400" width="8" height="40" fill="#CD853F"/>
  <rect x="207" y="400" width="8" height="40" fill="#CD853F"/>
  <rect x="222" y="400" width="8" height="40" fill="#CD853F"/>
  
  <!-- Tail -->
  <path d="M240 370 Q260 380 250 400 Q240 390 240 370" fill="#8B4513"/>
  
  <!-- Tribal patterns -->
  <circle cx="200" cy="350" r="15" fill="#8B4513"/>
  <polygon points="200,335 210,350 200,365 190,350" fill="#FFD700"/>
  
  <!-- Decorative dots -->
  <circle cx="180" cy="320" r="3" fill="#FFD700"/>
  <circle cx="220" cy="320" r="3" fill="#FFD700"/>
  <circle cx="200" cy="300" r="2" fill="#FFD700"/>
  
  <!-- Rustic texture -->
  <g opacity="0.3">
    <circle cx="190" cy="340" r="1" fill="#654321"/>
    <circle cx="210" cy="360" r="1" fill="#654321"/>
    <circle cx="205" cy="330" r="1" fill="#654321"/>
    <circle cx="195" cy="370" r="1" fill="#654321"/>
  </g>
</svg>