<svg width="400" height="500" xmlns="http://www.w3.org/2000/svg">
  <rect width="400" height="500" fill="#F5F5DC"/>
  
  <!-- Collection of dokra figurines -->
  <!-- Horse -->
  <g transform="translate(200, 250) scale(0.7)">
    <ellipse cx="0" cy="0" rx="30" ry="45" fill="#CD853F"/>
    <ellipse cx="0" cy="-50" rx="18" ry="30" fill="#CD853F"/>
    <rect x="-15" y="30" width="6" height="30" fill="#CD853F"/>
    <rect x="-5" y="30" width="6" height="30" fill="#CD853F"/>
    <rect x="5" y="30" width="6" height="30" fill="#CD853F"/>
    <rect x="15" y="30" width="6" height="30" fill="#CD853F"/>
    <circle cx="0" cy="0" r="10" fill="#8B4513"/>
  </g>
  
  <!-- Elephant -->
  <g transform="translate(100, 200) scale(0.5)">
    <ellipse cx="0" cy="0" rx="40" ry="50" fill="#B8860B"/>
    <ellipse cx="-10" cy="-30" rx="20" ry="25" fill="#B8860B"/>
    <path d="M-30 -30 Q-50 -20 -45 0 Q-40 10 -30 0" fill="#B8860B"/>
    <rect x="-20" y="40" width="8" height="25" fill="#B8860B"/>
    <rect x="-5" y="40" width="8" height="25" fill="#B8860B"/>
    <rect x="10" y="40" width="8" height="25" fill="#B8860B"/>
    <rect x="25" y="40" width="8" height="25" fill="#B8860B"/>
  </g>
  
  <!-- Bird -->
  <g transform="translate(300, 180) scale(0.6)">
    <ellipse cx="0" cy="0" rx="25" ry="35" fill="#DAA520"/>
    <ellipse cx="5" cy="-25" rx="12" ry="15" fill="#DAA520"/>
    <path d="M-20 -10 Q-35 -15 -30 -5 Q-25 5 -20 -10" fill="#DAA520"/>
    <path d="M20 -10 Q35 -15 30 -5 Q25 5 20 -10" fill="#DAA520"/>
    <rect x="-3" y="25" width="6" height="15" fill="#DAA520"/>
  </g>
  
  <!-- Display shelf -->
  <rect x="50" y="350" width="300" height="10" fill="#8B4513"/>
  <rect x="40" y="360" width="320" height="20" fill="#654321"/>
</svg>