<svg width="400" height="500" xmlns="http://www.w3.org/2000/svg">
  <rect width="400" height="500" fill="#F8F8FF"/>
  
  <!-- Tribal printed shirt laid flat -->
  <!-- Shirt base -->
  <path d="M100 100 Q100 80 120 80 L150 80 Q170 70 200 70 Q230 70 250 80 L280 80 Q300 80 300 100 L300 150 L320 170 L320 400 L80 400 L80 170 L100 150 Z" fill="#87CEEB"/>
  
  <!-- Collar -->
  <path d="M170 70 Q200 60 230 70 L230 90 Q200 80 170 90 Z" fill="#4682B4"/>
  
  <!-- Tribal print pattern -->
  <g opacity="0.8">
    <circle cx="150" cy="180" r="15" fill="#8B0000"/>
    <circle cx="150" cy="180" r="10" fill="#FFD700"/>
    <polygon points="150,165 160,180 150,195 140,180" fill="#8B0000"/>
    
    <circle cx="250" cy="180" r="15" fill="#FFD700"/>
    <circle cx="250" cy="180" r="10" fill="#8B0000"/>
    <polygon points="250,165 260,180 250,195 240,180" fill="#FFD700"/>
    
    <circle cx="200" cy="240" r="18" fill="#8B0000"/>
    <circle cx="200" cy="240" r="12" fill="#FFD700"/>
    <polygon points="200,222 212,240 200,258 188,240" fill="#8B0000"/>
    
    <circle cx="150" cy="300" r="12" fill="#FFD700"/>
    <circle cx="250" cy="300" r="12" fill="#8B0000"/>
    
    <circle cx="130" cy="250" r="8" fill="#8B0000"/>
    <circle cx="270" cy="250" r="8" fill="#FFD700"/>
  </g>
  
  <!-- Buttons -->
  <circle cx="200" cy="120" r="3" fill="#2F4F4F"/>
  <circle cx="200" cy="140" r="3" fill="#2F4F4F"/>
  <circle cx="200" cy="160" r="3" fill="#2F4F4F"/>
  <circle cx="200" cy="180" r="3" fill="#2F4F4F"/>
  
  <!-- Sleeves -->
  <ellipse cx="80" cy="140" rx="20" ry="40" fill="#87CEEB"/>
  <ellipse cx="320" cy="140" rx="20" ry="40" fill="#87CEEB"/>
  
  <!-- Small tribal motifs on sleeves -->
  <circle cx="80" cy="130" r="5" fill="#8B0000"/>
  <circle cx="320" cy="130" r="5" fill="#FFD700"/>
</svg>