<svg width="400" height="500" xmlns="http://www.w3.org/2000/svg">
  <rect width="400" height="500" fill="#F5F5DC"/>
  
  <!-- Person wearing the tribal shirt -->
  <!-- Torso -->
  <rect x="150" y="180" width="100" height="120" fill="#87CEEB"/>
  
  <!-- Collar visible -->
  <path d="M170 180 Q200 170 230 180 L230 200 Q200 190 170 200 Z" fill="#4682B4"/>
  
  <!-- Arms -->
  <ellipse cx="120" cy="220" rx="25" ry="50" fill="#87CEEB"/>
  <ellipse cx="280" cy="220" rx="25" ry="50" fill="#87CEEB"/>
  
  <!-- Hands -->
  <circle cx="120" cy="270" r="15" fill="#D2B48C"/>
  <circle cx="280" cy="270" r="15" fill="#D2B48C"/>
  
  <!-- Head/neck (minimal) -->
  <ellipse cx="200" cy="150" rx="30" ry="20" fill="#D2B48C"/>
  
  <!-- Tribal prints visible on worn shirt -->
  <circle cx="180" cy="220" r="12" fill="#8B0000" opacity="0.8"/>
  <circle cx="180" cy="220" r="8" fill="#FFD700" opacity="0.8"/>
  
  <circle cx="220" cy="220" r="12" fill="#FFD700" opacity="0.8"/>
  <circle cx="220" cy="220" r="8" fill="#8B0000" opacity="0.8"/>
  
  <circle cx="200" cy="260" r="10" fill="#8B0000" opacity="0.8"/>
  
  <!-- Jeans/pants -->
  <rect x="160" y="300" width="80" height="200" fill="#4169E1"/>
  
  <!-- Background (casual setting) -->
  <g opacity="0.2">
    <circle cx="80" cy="100" r="25" fill="#32CD32"/>
    <circle cx="320" cy="120" r="20" fill="#228B22"/>
    <rect x="0" y="400" width="400" height="100" fill="#8B4513"/>
  </g>
</svg>