<svg width="400" height="500" xmlns="http://www.w3.org/2000/svg">
  <rect width="400" height="500" fill="#F5F5DC"/>
  
  <!-- Cane basket - different angle -->
  <!-- Basket base -->
  <ellipse cx="200" cy="400" rx="80" ry="30" fill="#DEB887"/>
  
  <!-- Basket walls -->
  <path d="M120 400 Q120 250 200 250 Q280 250 280 400" fill="none" stroke="#8B4513" stroke-width="3"/>
  
  <!-- Woven pattern -->
  <g opacity="0.7">
    <line x1="140" y1="350" x2="260" y2="350" stroke="#654321" stroke-width="2"/>
    <line x1="135" y1="320" x2="265" y2="320" stroke="#8B4513" stroke-width="2"/>
    <line x1="130" y1="290" x2="270" y2="290" stroke="#654321" stroke-width="2"/>
    <line x1="125" y1="260" x2="275" y2="260" stroke="#8B4513" stroke-width="2"/>
    
    <line x1="160" y1="250" x2="160" y2="400" stroke="#654321" stroke-width="1"/>
    <line x1="180" y1="250" x2="180" y2="400" stroke="#8B4513" stroke-width="1"/>
    <line x1="200" y1="250" x2="200" y2="400" stroke="#654321" stroke-width="1"/>
    <line x1="220" y1="250" x2="220" y2="400" stroke="#8B4513" stroke-width="1"/>
    <line x1="240" y1="250" x2="240" y2="400" stroke="#654321" stroke-width="1"/>
  </g>
  
  <!-- Handles -->
  <ellipse cx="150" cy="280" rx="5" ry="15" fill="#8B4513"/>
  <ellipse cx="250" cy="280" rx="5" ry="15" fill="#8B4513"/>
  
  <!-- Items inside basket -->
  <circle cx="180" cy="350" r="8" fill="#FF6347"/>
  <circle cx="220" cy="350" r="8" fill="#32CD32"/>
  <circle cx="200" cy="370" r="6" fill="#FFD700"/>
  
  <!-- Shadow -->
  <ellipse cx="200" cy="420" rx="90" ry="20" fill="#000" opacity="0.2"/>
</svg>