<svg width="400" height="500" xmlns="http://www.w3.org/2000/svg">
  <rect width="400" height="500" fill="#F8F8FF"/>
  
  <!-- Multiple cane baskets in use -->
  <!-- Large basket -->
  <g transform="translate(150, 200) scale(0.8)">
    <ellipse cx="0" cy="100" rx="60" ry="25" fill="#DEB887"/>
    <path d="M-60 100 Q-60 0 0 0 Q60 0 60 100" fill="none" stroke="#8B4513" stroke-width="3"/>
    <line x1="-40" y1="80" x2="40" y2="80" stroke="#654321" stroke-width="2"/>
    <line x1="-35" y1="60" x2="35" y2="60" stroke="#8B4513" stroke-width="2"/>
    <line x1="-30" y1="40" x2="30" y2="40" stroke="#654321" stroke-width="2"/>
    <line x1="-25" y1="20" x2="25" y2="20" stroke="#8B4513" stroke-width="2"/>
    
    <!-- Fruits inside -->
    <circle cx="-15" cy="80" r="6" fill="#FF6347"/>
    <circle cx="15" cy="80" r="6" fill="#32CD32"/>
    <circle cx="0" cy="85" r="5" fill="#FFD700"/>
  </g>
  
  <!-- Medium basket -->
  <g transform="translate(80, 350) scale(0.6)">
    <ellipse cx="0" cy="80" rx="50" ry="20" fill="#DEB887"/>
    <path d="M-50 80 Q-50 10 0 10 Q50 10 50 80" fill="none" stroke="#8B4513" stroke-width="3"/>
    <line x1="-35" y1="65" x2="35" y2="65" stroke="#654321" stroke-width="2"/>
    <line x1="-30" y1="50" x2="30" y2="50" stroke="#8B4513" stroke-width="2"/>
    <line x1="-25" y1="35" x2="25" y2="35" stroke="#654321" stroke-width="2"/>
  </g>
  
  <!-- Small basket -->
  <g transform="translate(320, 380) scale(0.5)">
    <ellipse cx="0" cy="60" rx="40" ry="15" fill="#DEB887"/>
    <path d="M-40 60 Q-40 15 0 15 Q40 15 40 60" fill="none" stroke="#8B4513" stroke-width="3"/>
    <line x1="-30" y1="50" x2="30" y2="50" stroke="#654321" stroke-width="2"/>
    <line x1="-25" y1="40" x2="25" y2="40" stroke="#8B4513" stroke-width="2"/>
    <line x1="-20" y1="30" x2="20" y2="30" stroke="#654321" stroke-width="2"/>
  </g>
  
  <!-- Floor -->
  <rect x="0" y="450" width="400" height="50" fill="#DEB887" opacity="0.3"/>
</svg>